<?xml version="1.0" encoding="UTF-8"?>
<svg id="Calque_1" xmlns="http://www.w3.org/2000/svg" version="1.1" viewBox="0 0 600 660">
  <!-- Generator: Adobe Illustrator 29.8.4, SVG Export Plug-In . SVG Version: 2.1.1 Build 6)  -->
  <defs>
    <style>
      .st0 {
        fill: #be2b0b;
      }

      .st0, .st1, .st2, .st3, .st4, .st5, .st6 {
        stroke-miterlimit: 10;
      }

      .st0, .st1, .st2, .st3, .st5 {
        stroke: #fc0;
      }

      .st0, .st1, .st2, .st4 {
        fill-rule: evenodd;
      }

      .st1, .st3, .st7, .st4 {
        fill: #131746;
      }

      .st8 {
        fill: #fc0;
      }

      .st2, .st5 {
        fill: #c2290c;
      }

      .st7 {
        stroke-linecap: round;
        stroke-linejoin: round;
      }

      .st7, .st4 {
        stroke: #131746;
      }

      .st9 {
        fill: #1e1e1c;
      }

      .st6 {
        fill: #c01818;
        stroke: #edd100;
      }
    </style>
  </defs>
  <path class="st8" d="M598.5,1.5v258.5c0,286.2-298.5,398.5-298.5,398.5,0,0-298.5-112.2-298.5-398.5V1.5h597Z"/>
  <g>
    <path class="st4" d="M116.5,19.08c10.59,2.2,25.07,3.4,27.17,14.88,1.9,10.19,7.69,23.67,18.58,26.37,6.49,1.6-7.39,8.29-14.38,9.59-1.1.2-2.9-7.89-3.5-7.49-5.29,3-8.49-18.18-8.59-22.77-.5-15.78-20.48-19.18-19.28-20.38h0v-.2Z"/>
    <path class="st2" d="M141.97,57.64c-6.09-3.4-8.53-2.99-14.03-.58-1.6,8.49,2.96,12.71,12.25,18.51,6.09,3.8,6.97-10.84,6.97-12.04l-5.09-5.79h0l-.1-.1Z"/>
    <path class="st2" d="M253.85,198.08c-4.69-4.1-16.78,9.39-19.08,10.09-15.68.4-25.37,13.58-38.96,16.78-7.79,0-9.19,4.79-9.19,11.59s-2.9,11.19-1.2,17.68c1.4,5.29-.9,7.99-4.4,4.69-1.4.4.8,3.4-.7,3.7-8.39,1.8-17.78-1.7-21.48-5.79,3.4-10.19,17.38-28.67,17.38-34.26s5.59-6.19,14.48-14.08c7.09-6.29,15.88-13.98,22.67-19.48,1.8-1.5,11.09-14.08,12.69-15.08"/>
    <path class="st2" d="M426.56,175.41c-2.2,7.99-10.39,28.77-11.49,37.96-1.1,8.99-10.49,7.99-16.68,15.38-4.3,5.09-15.48,12.49-21.48,19.08-2.6,2.9-3.8,5.39-2.2,6.99-.9,4-5.19,3.5-7.39,5.19-.4.3-1.3,1.9-1.4,2.7-9.29-1.4-19.18-2.6-20.18-7.99,4.5-5.59,8.19-4.59,14.88-9.09,6.69-4.59,16.18-13.58,22.87-23.77,6.69-10.19,8.59-18.08,5.29-21.48-3.4-3.4-10.39-13.68-10.39-13.68,0,0-13.78-10.49-16.48-12.79"/>
    <path class="st2" d="M361.83,173.81c2.6,8.29,17.08,27.97,31.76,27.07-3.2,13.19,1.5,16.68,4.59,1.3,1.2.4,1.9.5,3.3,1.1-1.7,10.29,2.2,16.68,4.79,1.3.9.2,2.3.3,3.4.4-.3,11.39,3.2,11.79,4.3.3,1.3.1,2.7,0,3.9-.2,2.2,16.88,6.59,7.49,4.1-1.1,8.89-1.4,15.88-22.57,13.98-22.38"/>
    <path class="st2" d="M440.64,102.89c4.5,7.99,16.18,17.38,18.78,26.47,3.2,15.58.3,36.66.3,36.66-.9,6.49.4,21.08,5.59,23.67,6.69,3.4,4.5,12.39,6.69,21.48-4.5,16.08-3.4,30.77,1.7,44.15,1.5,5.09-3.8,10.79-5.49,7.39-1.4.4-.6,1-2.1,4.4-11.49,2.3-18.58,3-18.98-1,2.1-1.9,4.2-4,5.79-6.39,5.59-7.99,8.29-24.17,3.8-29.87-4.5-5.69-5.59-11.79-5.59-17.38s-14.88-7.89-21.68-13.49c-27.37-22.38-28.57-18.68-57.64-15.08-9.29-3-39.86,14.18-45.45,17.68-12.69,4.89-26.87,5.29-40.26,6.79,0,0-29.07-1.2-32.46-5.59-20.08-6.39-27.07-15.78-36.86-29.47-3.4-4.59-30.17-30.57-33.56-36.26-3.4-5.59-9.5,1.27-15.18,1.27-4.61,0-10.59,10.12-17.28,12.32s-15.68,1.2-20.18-1.2c-4.5-2.2-4.89-5.29-8.99-11.39-3-4.59-3.3-6.79,2.2-11.39,6.29-5.19,13.39-20.38,11.19-23.77s-3.4-7.99,0-11.39c3.4-3.4,5.19-13.58,5.19-18.18s6.69-10.39,10.09-13.39c1.8-1.6,9.79.6,17.58.9,6.59.2,12.19.2,15.28,2.3,5.89,4,44.75,20.68,58.14,21.88,11.29,1,34.86-3.6,46.35-.6,46.25,12.09,78.11,5.19,86.4,1.5,6.19-2.8,16.18-8.19,32.86-6.79,11.19,1,19.59.91,29.38,5.21"/>
    <path id="path4405" class="st2" d="M425.76,100.59c0,8.49-1.28,14.28,0,21.88,1.32,7.79,3.12,17.06-1.7,22.77-.84,1-1.8,2.9-3,4.1"/>
    <path class="st2" d="M243.86,168.42c1.2,10.99,15.18,28.57,25.57,32.96,13.49,6.29,11.39,7.39,17.58,18.08,2.1,5.49,3.9,10.99,3.9,15.88,0,7.99-4.5,27.17-12.29,33.96-6.79,7.49,9.89,10.19,22.38,1.2-1.1-6.29,4.5-7.99,5.59-1.7,7.79,1.2,1.8-6.19.7-12.99-.9-5.29-3.1-26.17-4.3-38.16.2-15.58,3.2-31.27-2.4-46.85"/>
    <path class="st4" d="M224.38,17.88c-35.26,7.89-16.28,28.07-35.06,38.86-5.69,3.3-9.39,4.1-9.39,7.49s6.99,3.7,9.79,5.99c9.09-1.5,14.28-9.09,16.68-15.28,3.6-9.09,0-18.28,5.79-25.77,6.69-5.69,11.09-10.19,12.09-11.39h0l.1.1Z"/>
    <path class="st2" d="M186.82,69.03c8.49-3.9,14.18-3.26,21.89-3.26,5.97,0,9.36,1.05,12.89,2.73,4.05,1.93-3.65,13.19-9.23,15.83-2.97,1.98-10.12,3.87-14.01,2.47"/>
    <path class="st1" d="M300.8,268c-1.5,3-12.49,6.29-18.58,5.79-3.6-.3-4.4-3.1-3.7-4.79-.5.4-.9,1-1.3,1.4-4,4.5-7.49,8.49-6.39,9.99,1.7,1.2,5.79,1.2,6.59.5,1-.7,2.6-4,4.79-7.09-11.09,15.68,3.3,13.49,13.39,9.79,0,0,5.29-4.3,5.29-13.39-.1-.9.2-2.9-.1-2.2h0ZM448.13,264.61c2.8,4.3,8.69,3.5,18.08,2.1,1,11.79-7.59,12.69-16.08,11.69-3.2.4-.5-6.49,2.7-10.59-2.8,4-6.89,10.09-12.29,7.99.3-4.4,2.4-6.29,7.59-11.09h0v-.1ZM158.85,256.72c2.6,2.7,7.49,6.59,21.78,6.39-.2,1.8.5,10.59-4.2,11.09-4.59.3-7.69,1-11.79-.5-1.5-.7-2.4-2.1-1.5-4.69,1-3,1.4-5.09,2.1-7.99-1.2,4.4-.7,5.49-3.1,7.99-11.19,3.8-7.59-4.69-3.2-12.09h-.1v-.2h0ZM345.65,254.72c-1,4.1,13.19,6.79,20.98,6.79-3.9,4.99,4.2,11.59-18.78,10.79-6.69-1.6,1.9-9.89,3.9-12.99-3,4.5-11.19,12.79-14.38,6.99,1.1-3.7,3.8-7.89,8.29-11.79h0v.2Z"/>
    <path class="st6" d="M462.32,182.8"/>
    <g>
      <path id="path44411" class="st0" d="M492.5,142.82"/>
      <path id="path444111" data-name="path44411" class="st2" d="M440.64,102.89c74.81,19.58,39.49,115.23-46.95,57.44-14.83-9.91-33.18-33.9-49.15-31.86-17.65,2.25-34.56,2.4-26.77,8.29s19.06,4.07,29.78,5.39c.34.04-26.05,1.56-26.05,1.56,0,0,7.22,3.49,14.62,4.6s14.13-.9,20.49-1.32c3.95-.26,8.21-1.69,19.3,7.7,11.19,9.49,26.26,21.84,39.92,26.94,87.09,32.51,108.35-69.03,20.42-97.29"/>
      <path id="path44431" class="st0" d="M316.6,135.71c-.75-.12,20.87,1.12,32.64-.36"/>
    </g>
    <path class="st8" d="M174.11,99.77c-8.94,2.24-15.12-3.18-16.5,9.07,4.34,1.54,6.43.81,7.96-.24,4.09-2.82,3.95-6.65,8.57-8.72.06-.03.03-.12-.03-.1Z"/>
    <ellipse class="st9" cx="162.85" cy="104.59" rx="3.5" ry="3.7"/>
    <path class="st5" d="M138.78,132.26c-1.6,4.1-7.29,2.8.2,10.19M151.36,150.42c5.09-2.3,7-6.97,7.1-11.37M147.57,72.62c4.4,1.5,5.89-2.7,9.29-1.1,1.8.9,11.89,5.79,15.98,5.79M243.38,93.58c0,5.29,3.6,11.99,2.3,17.28s-5.57,8.1-5.62,13.69c-.05,5.09-4.4,14.49-5.66,26.36M192.42,120.87c0,7.09-9.06,11.09-17.75,15.48M198.2,79.97c3.95-2.55,8.38,0,14.13-4.24"/>
    <path class="st7" d="M222.34,79.97c7.24,5.48,3.06,50.35-28.99,68.7l11.18,11.58c40-27.12,41.82-68.37,34.09-75.61"/>
    <ellipse class="st3" cx="197.03" cy="155.17" rx="3.8" ry="5.49" transform="translate(-53.73 159.45) rotate(-39.2)"/>
    <g>
      <path class="st3" d="M188.74,184.69c4.96,2.42,10.47,3.29,16.71,1.66l-1.43-10.19-11.92-1.27-3.47,9.94h0l.12-.15Z"/>
      <ellipse class="st3" cx="197.5" cy="184.54" rx="5.14" ry="3.92" transform="translate(1.9 371.09) rotate(-86.7)"/>
      <path class="st3" d="M188.74,184.69c2.91-2.43,13.98-1.63,16.71,1.66,5.92-8.39,11.04-21.2,3.51-26.65l-19.42-1.56c-8.48,4-6.89,17.44-.94,26.56h.13Z"/>
    </g>
  </g>
  <g>
    <path class="st4" d="M116.5,279.08c10.59,2.2,25.07,3.4,27.17,14.88,1.9,10.19,7.69,23.67,18.58,26.37,6.49,1.6-7.39,8.29-14.38,9.59-1.1.2-2.9-7.89-3.5-7.49-5.29,3-8.49-18.18-8.59-22.77-.5-15.78-20.48-19.18-19.28-20.38h0v-.2Z"/>
    <path class="st2" d="M141.97,317.64c-6.09-3.4-8.53-2.99-14.03-.58-1.6,8.49,2.96,12.71,12.25,18.51,6.09,3.8,6.97-10.84,6.97-12.04l-5.09-5.79h0l-.1-.1Z"/>
    <path class="st2" d="M253.85,458.08c-4.69-4.1-16.78,9.39-19.08,10.09-15.68.4-25.37,13.58-38.96,16.78-7.79,0-9.19,4.79-9.19,11.59s-2.9,11.19-1.2,17.68c1.4,5.29-.9,7.99-4.4,4.69-1.4.4.8,3.4-.7,3.7-8.39,1.8-17.78-1.7-21.48-5.79,3.4-10.19,17.38-28.67,17.38-34.26s5.59-6.19,14.48-14.08c7.09-6.29,15.88-13.98,22.67-19.48,1.8-1.5,11.09-14.08,12.69-15.08"/>
    <path class="st2" d="M426.56,435.41c-2.2,7.99-10.39,28.77-11.49,37.96-1.1,8.99-10.49,7.99-16.68,15.38-4.3,5.09-15.48,12.49-21.48,19.08-2.6,2.9-3.8,5.39-2.2,6.99-.9,4-5.19,3.5-7.39,5.19-.4.3-1.3,1.9-1.4,2.7-9.29-1.4-19.18-2.6-20.18-7.99,4.5-5.59,8.19-4.59,14.88-9.09,6.69-4.59,16.18-13.58,22.87-23.77,6.69-10.19,8.59-18.08,5.29-21.48-3.4-3.4-10.39-13.68-10.39-13.68,0,0-13.78-10.49-16.48-12.79"/>
    <path class="st2" d="M361.83,433.81c2.6,8.29,17.08,27.97,31.76,27.07-3.2,13.19,1.5,16.68,4.59,1.3,1.2.4,1.9.5,3.3,1.1-1.7,10.29,2.2,16.68,4.79,1.3.9.2,2.3.3,3.4.4-.3,11.39,3.2,11.79,4.3.3,1.3.1,2.7,0,3.9-.2,2.2,16.88,6.59,7.49,4.1-1.1,8.89-1.4,15.88-22.57,13.98-22.38"/>
    <path class="st2" d="M440.64,362.89c4.5,7.99,16.18,17.38,18.78,26.47,3.2,15.58.3,36.66.3,36.66-.9,6.49.4,21.08,5.59,23.67,6.69,3.4,4.5,12.39,6.69,21.48-4.5,16.08-3.4,30.77,1.7,44.15,1.5,5.09-3.8,10.79-5.49,7.39-1.4.4-.6,1-2.1,4.4-11.49,2.3-18.58,3-18.98-1,2.1-1.9,4.2-4,5.79-6.39,5.59-7.99,8.29-24.17,3.8-29.87-4.5-5.69-5.59-11.79-5.59-17.38s-14.88-7.89-21.68-13.49c-27.37-22.38-28.57-18.68-57.64-15.08-9.29-3-39.86,14.18-45.45,17.68-12.69,4.89-26.87,5.29-40.26,6.79,0,0-29.07-1.2-32.46-5.59-20.08-6.39-27.07-15.78-36.86-29.47-3.4-4.59-30.17-30.57-33.56-36.26-3.4-5.59-9.5,1.27-15.18,1.27-4.61,0-10.59,10.12-17.28,12.32s-15.68,1.2-20.18-1.2c-4.5-2.2-4.89-5.29-8.99-11.39-3-4.59-3.3-6.79,2.2-11.39,6.29-5.19,13.39-20.38,11.19-23.77s-3.4-7.99,0-11.39c3.4-3.4,5.19-13.58,5.19-18.18s6.69-10.39,10.09-13.39c1.8-1.6,9.79.6,17.58.9,6.59.2,12.19.2,15.28,2.3,5.89,4,44.75,20.68,58.14,21.88,11.29,1,34.86-3.6,46.35-.6,46.25,12.09,78.11,5.19,86.4,1.5,6.19-2.8,16.18-8.19,32.86-6.79,11.19,1,19.59.91,29.38,5.21"/>
    <path id="path44051" data-name="path4405" class="st2" d="M425.76,360.59c0,8.49-1.28,14.28,0,21.88,1.32,7.79,3.12,17.06-1.7,22.77-.84,1-1.8,2.9-3,4.1"/>
    <path class="st2" d="M243.86,428.41c1.2,10.99,15.18,28.57,25.57,32.96,13.49,6.29,11.39,7.39,17.58,18.08,2.1,5.49,3.9,10.99,3.9,15.88,0,7.99-4.5,27.17-12.29,33.96-6.79,7.49,9.89,10.19,22.38,1.2-1.1-6.29,4.5-7.99,5.59-1.7,7.79,1.2,1.8-6.19.7-12.99-.9-5.29-3.1-26.17-4.3-38.16.2-15.58,3.2-31.27-2.4-46.85"/>
    <path class="st4" d="M224.38,277.88c-35.26,7.89-16.28,28.07-35.06,38.86-5.69,3.3-9.39,4.1-9.39,7.49s6.99,3.7,9.79,5.99c9.09-1.5,14.28-9.09,16.68-15.28,3.6-9.09,0-18.28,5.79-25.77,6.69-5.69,11.09-10.19,12.09-11.39h0l.1.1Z"/>
    <path class="st2" d="M186.82,329.02c8.49-3.9,14.18-3.26,21.89-3.26,5.97,0,9.36,1.05,12.89,2.73,4.05,1.93-3.65,13.19-9.23,15.83-2.97,1.98-10.12,3.87-14.01,2.47"/>
    <path class="st1" d="M300.8,528c-1.5,3-12.49,6.29-18.58,5.79-3.6-.3-4.4-3.1-3.7-4.79-.5.4-.9,1-1.3,1.4-4,4.5-7.49,8.49-6.39,9.99,1.7,1.2,5.79,1.2,6.59.5,1-.7,2.6-4,4.79-7.09-11.09,15.68,3.3,13.49,13.39,9.79,0,0,5.29-4.3,5.29-13.39-.1-.9.2-2.9-.1-2.2h0ZM448.13,524.61c2.8,4.3,8.69,3.5,18.08,2.1,1,11.79-7.59,12.69-16.08,11.69-3.2.4-.5-6.49,2.7-10.59-2.8,4-6.89,10.09-12.29,7.99.3-4.4,2.4-6.29,7.59-11.09h0v-.1ZM158.85,516.72c2.6,2.7,7.49,6.59,21.78,6.39-.2,1.8.5,10.59-4.2,11.09-4.59.3-7.69,1-11.79-.5-1.5-.7-2.4-2.1-1.5-4.69,1-3,1.4-5.09,2.1-7.99-1.2,4.4-.7,5.49-3.1,7.99-11.19,3.8-7.59-4.69-3.2-12.09h-.1v-.2h0ZM345.65,514.72c-1,4.1,13.19,6.79,20.98,6.79-3.9,4.99,4.2,11.59-18.78,10.79-6.69-1.6,1.9-9.89,3.9-12.99-3,4.5-11.19,12.79-14.38,6.99,1.1-3.7,3.8-7.89,8.29-11.79h0v.2Z"/>
    <path class="st6" d="M462.32,442.8"/>
    <g>
      <path id="path444112" data-name="path44411" class="st0" d="M492.5,402.82"/>
      <path id="path444113" data-name="path44411" class="st2" d="M440.64,362.89c74.81,19.58,39.49,115.23-46.95,57.44-14.83-9.91-33.18-33.9-49.15-31.86-17.65,2.25-34.56,2.4-26.77,8.29,7.55,5.71,19.06,4.07,29.78,5.39.34.04-26.05,1.56-26.05,1.56,0,0,7.22,3.49,14.62,4.6s14.13-.9,20.49-1.32c3.95-.26,8.21-1.69,19.3,7.7,11.19,9.49,26.26,21.84,39.92,26.94,87.09,32.51,108.35-69.03,20.42-97.29"/>
      <path id="path444311" data-name="path44431" class="st0" d="M316.6,395.71c-.75-.12,20.87,1.12,32.64-.36"/>
    </g>
    <path class="st8" d="M174.11,359.77c-8.94,2.24-15.12-3.18-16.5,9.07,4.34,1.54,6.43.81,7.96-.24,4.09-2.82,3.95-6.65,8.57-8.72.06-.03.03-.12-.03-.1Z"/>
    <ellipse class="st9" cx="162.85" cy="364.59" rx="3.5" ry="3.7"/>
    <path class="st5" d="M138.78,392.25c-1.6,4.1-7.29,2.8.2,10.19M151.36,410.42c5.09-2.3,7-6.97,7.1-11.37M147.57,332.62c4.4,1.5,5.89-2.7,9.29-1.1,1.8.9,11.89,5.79,15.98,5.79M243.38,353.58c0,5.29,3.6,11.99,2.3,17.28s-5.57,8.1-5.62,13.69c-.05,5.09-4.4,14.49-5.66,26.36M192.42,380.87c0,7.09-9.06,11.09-17.75,15.48M198.2,339.97c3.95-2.55,8.38,0,14.13-4.24"/>
    <path class="st7" d="M222.34,339.97c7.24,5.48,3.06,50.35-28.99,68.7l11.18,11.58c40-27.12,41.82-68.37,34.09-75.61"/>
    <ellipse class="st3" cx="197.03" cy="415.17" rx="3.8" ry="5.49" transform="translate(-218.06 217.97) rotate(-39.2)"/>
    <g>
      <path class="st3" d="M188.74,444.69c4.96,2.42,10.47,3.29,16.71,1.66l-1.43-10.19-11.92-1.27-3.47,9.94h0l.12-.15Z"/>
      <ellipse class="st3" cx="197.5" cy="444.54" rx="5.14" ry="3.92" transform="translate(-257.67 616.13) rotate(-86.7)"/>
      <path class="st3" d="M188.74,444.69c2.91-2.43,13.98-1.63,16.71,1.66,5.92-8.39,11.04-21.2,3.51-26.65l-19.42-1.56c-8.48,4-6.89,17.44-.94,26.56h.13Z"/>
    </g>
  </g>
</svg>