<?xml version="1.0" encoding="UTF-8" standalone="no"?>
<!-- Created with Inkscape (http://www.inkscape.org/) -->

<svg
   version="1.1"
   id="svg1"
   width="800"
   height="880"
   viewBox="0 0 800 880"
   sodipodi:docname="Blason_Soule 0 92 100 20.svg"
   inkscape:version="1.4.4 (dcaf3e7, 2026-05-05)"
   xmlns:inkscape="http://www.inkscape.org/namespaces/inkscape"
   xmlns:sodipodi="http://sodipodi.sourceforge.net/DTD/sodipodi-0.dtd"
   xmlns="http://www.w3.org/2000/svg"
   xmlns:svg="http://www.w3.org/2000/svg">
  <defs
     id="defs1" />
  <sodipodi:namedview
     id="namedview1"
     pagecolor="#ffffff"
     bordercolor="#000000"
     borderopacity="0.25"
     inkscape:showpageshadow="2"
     inkscape:pageopacity="0.0"
     inkscape:pagecheckerboard="0"
     inkscape:deskcolor="#d1d1d1"
     inkscape:zoom="0.7125"
     inkscape:cx="400"
     inkscape:cy="440"
     inkscape:window-width="1600"
     inkscape:window-height="829"
     inkscape:window-x="-8"
     inkscape:window-y="-8"
     inkscape:window-maximized="1"
     inkscape:current-layer="layer-MC0">
    <inkscape:page
       x="0"
       y="0"
       inkscape:label="1"
       id="page1"
       width="800"
       height="880"
       margin="0"
       bleed="0" />
  </sodipodi:namedview>
  <g
     id="layer-MC0"
     inkscape:groupmode="layer"
     inkscape:label="Calque 1">
    <path
       id="path1"
       d="M 0,0 H 597 V -258.5 C 597,-544.7 298.5,-657 298.5,-657 298.5,-657 0,-544.8 0,-258.5 Z"
       style="fill:#c5251a;fill-opacity:1;fill-rule:nonzero;stroke:none"
       transform="matrix(1.3333333,0,0,-1.3333333,1.9261333,2.2217333)" />
    <path
       id="path2"
       d="m 0,0 c 11.037,0.972 14.673,-21.972 17.14,-23.333 l 2.921,-1.945 c -0.065,-1.62 -0.324,-3.629 -1.168,-5.249 -1.169,-2.269 -6.817,-3.76 -3.506,-14.778 7.141,-21.583 17.01,-31.888 33.305,-47.444 -12.335,-11.148 -7.141,-6.157 -16.165,-15.75 -5.389,-5.509 -7.272,-9.074 -16.166,-16.527 -0.844,5.638 -2.467,6.027 -2.727,17.111 -5.778,-1.297 -6.298,-2.982 -9.349,-4.278 0.519,5.639 1.818,6.806 0.779,16.138 -3.636,-3.953 -4.545,-4.796 -9.738,-5.055 2.661,7.972 3.765,13.611 3.311,16.333 -1.558,3.306 -5.454,6.611 -8.765,3.889 -1.298,-4.926 -1.428,-8.296 -4.285,-8.361 -4.739,0.908 -7.531,-2.463 -10.712,-3.694 -6.103,-1.621 -7.336,-1.297 -11.297,-0.778 5.973,6.74 8.246,8.62 8.57,18.472 -0.195,6.417 1.753,5.639 5.843,6.417 6.428,-1.038 4.48,5.314 0,5.055 -3.7,0.194 -4.479,0 -7.791,-2.139 -3.311,-0.454 -3.116,5.12 -5.843,6.806 -5.583,1.231 -5.129,2.463 -8.569,6.027 6.881,5.121 6.167,3.435 10.712,4.861 1.428,1.75 1.104,3.5 4.285,5.25 2.272,0.389 4.934,2.139 6.232,-6.027 2.338,-2.334 3.896,-1.362 5.843,-1.362 2.597,3.306 1.883,6.222 0,7.584 -3.505,1.296 -5.843,-0.519 -8.764,2.139 -1.623,5.185 -0.13,9.787 -0.39,14.194 -4.479,3.694 -5.064,4.083 -6.232,10.111 h 2.142 c 9.349,0.519 11.492,-1.685 16.945,-5.445 l 4.48,-0.388 c 0.844,-1.88 2.856,-3.371 2.532,-5.639 -1.299,-2.787 -3.766,-10.824 1.363,-11.861 2.792,-0.454 1.688,-0.519 6.233,-0.195 -0.779,5.963 -3.701,5.898 -5.843,12.056 C -1.948,-21.972 0.195,-27.027 0,0"
       style="fill:#fbc707;fill-opacity:1;fill-rule:evenodd;stroke:none"
       transform="matrix(1.3333333,0,0,-1.3333333,290.30227,122.35667)" />
    <path
       id="path3"
       d="m 0,0 c 5.225,5.792 5.894,7.679 10.927,11.034 2.587,1.725 5.481,0.816 9.074,-2.39 3.401,-3.033 3.884,-3.541 5.843,-6.418 2.323,-3.413 2.708,-6.256 2.531,-9.335 -0.175,-3.063 -2.713,-6.118 -5.634,-9.262 9.477,-10.567 7.192,-17.88 12.255,-30.802 2.607,-6.653 4.38,-8.567 7.132,-12.348 l -7.755,0.553 c 4.232,-10.713 0.529,-18.422 1.208,-27.297 0.3,-3.928 -0.139,-9.941 4.076,-22.4 l -11.931,9.867 c -0.501,-7.316 -3.257,-17.669 6.587,-36.256 l -8.279,6.413 c -1.452,-6.442 -1.763,-24.522 4.237,-35.733 -4.03,0.073 -20.194,11.721 -28.999,17.478 -8.424,-9.207 -19.391,-14.112 -25,-14.444 -2.95,-0.063 -2.2,2.596 -1.839,3.311 1.616,3.601 3.815,6.23 6.21,9.443 -10.898,-6.519 -19.849,-10.315 -28.8,-12.944 -7.162,-2.599 -15.687,-3.059 -24.212,-2.935 1.546,5.887 6.014,11.773 9.507,15.326 -4.403,1.105 -19.907,-8.345 -35.926,-8.696 -5.263,0.058 -3.904,-0.079 -9.945,0.756 4.102,4.886 5.479,5.103 8.218,7.654 -7.019,-0.988 -8.391,-1.587 -17.163,-3.353 -15.472,-1.341 -25.661,5.157 -24.26,19.816 1.151,6.698 1.913,10.869 9.296,15.623 -5.362,-8.235 -2.935,-13.163 -2.259,-15.952 5.27,-13.133 23.379,-8.024 37.19,8.333 18.742,21.616 30.42,31.042 41.375,28.014 -3.11,9.501 -1.546,11.612 -2.514,18.001 7.325,-16.065 17.819,-19.928 28.938,-15.205 4.932,2.846 7.722,6.08 7.396,10.87 -0.733,3.614 -3.413,3.339 -7.067,3.842 -5.021,-0.16 -6.732,-0.32 -9.027,1.076 -5.786,4.63 -1.64,11.011 -7.037,14.669 l 5.6,3.034 c 4.481,-6.398 9.545,-4.822 14.61,-2.274 3.659,2.622 5.177,6.411 4.942,7.672 -7.507,0.224 -10.772,0.151 -14.926,-2.049 -11.917,-6.311 -19.314,-11.479 -26.363,-14.025 -7.94,-2.867 -20.83,-1.015 -25.316,4.098 -7.38,8.41 -5.661,22.194 8.487,30.529 4.051,2.387 6.326,2.493 11.632,2.961 -14.717,-6.819 -15.298,-12.659 -15.523,-16.371 -0.284,-4.676 5.303,-8.705 9.971,-9.958 5.481,-1.471 12.687,-1.802 21.243,1.167 8.764,3.041 14.039,9.096 18.639,10.45 4.114,1.211 9.865,-0.523 15.09,-2.243 -1.078,4.516 -1.314,6.397 -3.233,7.715 -3.465,2.38 -10.278,1.863 -15.856,-2.572 -6.713,-3.021 -9.532,-4.875 -11.766,-4.201 -3.374,8.047 -2.781,11.818 -1.273,15.727 1.153,2.989 -1.667,2.962 -4.164,5.013 -2.948,2.422 -1.278,5.157 1.32,6.979 2.158,1.515 15.256,8.987 15.256,8.987 1.558,8.395 6.707,14.465 11.71,16.25 C -17.975,5.907 -5.758,1.644 0,0"
       style="fill:#fbc707;fill-opacity:1;fill-rule:evenodd;stroke:none"
       transform="matrix(1.3333333,0,0,-1.3333333,458.89867,114.6936)" />
    <path
       id="path4"
       d="m 0,0 c -4.997,-1.949 -8.048,-21.444 -13.045,-23.393 l -13.241,-4.289 c -3.699,-0.78 -5.841,-0.78 -4.673,7.018 -13.564,-3.704 -26.739,-9.163 -27.843,11.697"
       style="fill:#fbc707;fill-opacity:1;fill-rule:evenodd;stroke:none"
       transform="matrix(1.3333333,0,0,-1.3333333,472.00533,450.86253)" />
    <path
       id="path5"
       d="m 0,0 c -4.254,-2.563 -20.513,-4.767 -23.369,19.451 -4.609,-4.376 -4.854,-7.243 -2.726,-13.421 2.916,-8.469 6.75,-12.481 9.347,-17.896 -0.129,-4.246 -1.233,-6.679 -4.088,-8.559 -0.811,5.739 -1.332,9.207 -6.817,9.727 -2.726,2.01 -6.556,6.484 -10.126,11.864 0.292,-9.336 1.297,-13.713 7.595,-19.451 1.038,-4.02 1.395,-7.034 0.39,-10.893 -1.721,2.465 -3.604,6.129 -9.154,6.03 -2.694,0.94 -3.18,5.577 -6.815,9.142 -2.954,-2.398 -3.83,-6.709 -10.322,-6.613 -3.18,-1.458 -4.284,-3.923 -2.726,-6.808 3.083,-0.194 10.062,-0.389 9.737,-6.225 -0.56,-6.454 0.974,-11.345 -0.779,-18.868 -0.908,-5.283 -1.493,-8.071 -6.426,-13.227 -2.143,2.529 -2.564,2.951 -3.115,9.531 -0.035,3.793 -1.137,5.122 -5.259,6.03 -2.92,0.454 -3.734,1.59 -3.116,4.864 0.811,1.329 2.758,7.131 -3.699,9.725 -3.312,1.816 -7.824,-3.889 -1.948,-6.808 2.206,-2.496 7.433,-6.387 1.752,-13.811 1.687,-6.158 3.245,-11.411 3.505,-17.895 -6.782,1.491 -12.359,5.061 -14.8,7.781 -2.817,3.139 -0.779,5.576 -6.036,9.142 -2.825,1.556 -3.733,3.21 -0.389,7.587 7.755,5.834 -1.461,14.2 -3.895,3.696 0.291,-4.896 0.616,-8.138 -3.895,-7.977 -2.207,-0.225 -8.603,-6.354 -13.827,-14.588 -3.422,0.655 -7.1,11.166 -4.089,20.618 1.777,5.577 1.913,6.032 4.739,7.781 -0.065,2.723 -0.812,5.025 2.466,8.753 2.044,-1.231 5.485,-2.853 10.126,-2.722 1.265,3.079 0.553,5.251 -1.168,7.585 -2.273,1.816 -10.353,-0.096 -9.737,4.085 0.228,4.799 -1.883,6.323 -12.657,13.617 0.317,2.08 6.924,6.035 13.046,6.613 5.272,0.497 10.692,-1.825 17.137,-1.751 1.007,-4.182 0.618,-3.857 0.196,-7.392 -1.59,-4.7 3.037,-5.645 5.453,-1.751 8.137,13.121 10.689,20.403 16.747,40.072 -16.586,-1.427 -26.94,-1.491 -37.585,0.583 2.207,-21.851 -21.097,-36.148 -29.405,-10.698 5.874,-2.043 12.599,-5.765 16.358,-2.53 3.341,2.876 0.844,11.834 -1.754,18.285 -6.815,25.547 -6.978,30.8 16.358,76.445 -12.852,-3.664 -10.158,-1.459 -22.394,-8.364 -10.55,-6.58 -58.649,13.584 -25.901,-41.433 1.266,-4.343 1.136,-5.479 0.779,-10.308 4.999,3.468 8.666,10.698 3.312,27.816 18.109,-4.603 11.034,-25.807 5.257,-34.235 -3.213,-4.961 -8.601,-7.165 -13.243,-8.559 -2.791,-5.479 -4.219,-9.272 8.179,-18.868 1.266,-2.463 1.429,-4.831 -0.193,-7.002 -4.642,3.566 -10.419,3.5 -15.775,7.585 -1.136,6.744 -1.039,9.856 -4.868,16.534 -0.746,-10.859 -2.24,-18.511 3.116,-21.202 4.64,-3.631 6.654,-4.343 8.762,-11.476 -4.544,2.691 -6.296,4.635 -16.551,3.695 -5.746,0.033 -6.331,11.087 -5.843,21.008 -3.83,2.205 -10.029,-11.672 0.194,-20.618 0.65,-4.345 -0.129,-8.624 -1.362,-13.421 -8.225,15.435 -10.741,14.274 -12.853,18.089 -1.345,2.431 -1.657,6.29 0.973,12.448 -5.55,0.908 -15.895,0.376 -17.331,-6.806 -0.929,-4.646 2.759,-5.804 3.505,-7.783 1.135,-3.338 2.238,-7.066 0.39,-11.28 -1.429,-3.827 -1.592,-4.701 -3.701,-8.364 -2.369,-5.545 -3.863,-7.23 -8.373,-9.142 -1.461,4.635 -1.657,8.396 -1.947,15.365 -2.371,1.265 -4.252,1.784 -5.064,3.113 0.779,6.062 2.759,9.013 2.142,14.783 -3.766,1.622 -6.103,2.432 -9.348,-3.5 2.208,-7.944 2.077,-16.048 -4.869,-16.536 -4.283,-4.603 -6.329,-7.131 -9.541,-13.225 -1.688,3.338 -3.831,4.278 -2.923,16.144 1.494,3.242 0.358,4.862 -0.778,6.223 -5.225,4.085 -0.065,8.301 2.532,9.403 4.056,0.292 9.154,5.251 -1.558,5.186 -1.622,1.104 -1.558,-5.315 -7.206,-5.251 -0.779,3.857 -3.208,7.317 -6.815,9.726 -2.732,1.824 -7.239,2.14 -14.411,0.972 5.291,7.391 7.108,11.833 16.358,14.589 7.207,4.117 9.088,4.214 12.074,-0.389 3.863,-5.738 12.399,-1.751 5.453,5.446 -3.084,4.085 -1.687,2.659 -7.79,8.17 7.271,8.039 7.4,10.763 -0.583,18.285 3.407,1.004 4.771,0.972 7.594,1.362 4.934,-0.261 7.983,-1.719 9.152,-5.253 2.532,-0.616 3.019,-0.777 7.4,-1.166 1.387,-1.913 2.363,-6.597 2.28,-9.921 -0.082,-3.248 -1.347,-5.251 0.057,-9.726 32.75,19.483 28.173,34.429 15.191,49.018 -12.887,-15.172 -29.336,0.588 -31.743,10.504 -0.953,3.927 -2.533,11.93 8.179,23.147 v -0.194 c -1.901,-7.523 0.422,-18.938 7.204,-21.202 11.653,-3.889 12.419,5.335 13.438,12.253 1.488,10.099 1.653,15.55 7.4,22.955 7.522,9.69 21.158,13.879 48.102,2.334 16.227,-5.511 27.586,-9.857 45.179,-8.366 -4.22,5.188 -7.271,7.458 -21.421,15.561 -11.295,6.486 -24.733,10.44 -35.638,34.042 0,0 -8.828,-4.835 -11.878,-6.225 -7.295,-3.324 -12.994,-5.981 -11.295,-11.67 1.646,-5.516 2.466,-5.965 4.478,-9.143 -3.766,1.556 -12.593,3.111 -17.137,14.004 -3.766,-0.712 -4.609,-0.843 -8.958,-8.557 -2.012,-4.15 -5.388,-13.358 -15.386,-10.7 l 7.207,7.587 c 1.753,1.685 0.972,7.846 -4.091,2.724 -5.061,-4.085 -11.684,-16.534 -17.524,-15.172 3.828,4.408 3.763,6.288 2.53,10.697 -6.75,0 -7.271,-0.389 -10.905,-2.334 -8.894,-6.548 -3.96,-8.04 0.973,-10.504 0.195,-5.317 -4.674,-7.133 -7.011,-10.697 -5.517,-8.43 -10.256,-10.829 -16.552,-12.451 -1.039,4.799 -0.908,6.873 0.39,14.978 0,0 -1.817,1.391 -2.337,1.945 -3.085,3.28 -1.233,6.873 3.699,13.227 3.572,3.178 -1.623,10.44 -5.647,2.53 -0.454,-2.011 -1.297,-3.242 -0.779,-7.004 -4.155,2.076 -6.556,3.373 -10.516,2.336 -4.934,-2.336 -14.539,1.362 -19.084,13.032 2.92,-0.714 4.869,-0.778 7.596,-0.779 5.323,-0.001 10.06,2.659 7.787,11.089 3.052,-1.103 5.13,-2.401 9.154,-3.308 3.181,1.686 6.167,7.457 -1.558,8.559 -4.09,-0.843 -4.673,0.454 -6.427,1.555 0.779,7.523 0.781,12.126 -10.904,14.589 2.402,3.242 4.608,4.345 8.178,5.643 7.01,1.23 9.932,1.684 15.774,0.972 5.518,-0.131 6.361,-1.622 6.622,-8.949 -1.169,-3.695 -3.31,-8.559 4.673,-7.002 4.024,-0.389 8.829,5.058 0.973,10.504 -4.153,2.982 -5.192,6.548 1.558,11.281 -1.298,5.317 -0.258,6.354 -0.39,15.951 1.689,-0.259 3.962,0.26 7.207,-2.528 2.53,-4.15 1.947,-3.438 4.284,-11.283 4.089,-2.334 5.259,-2.334 7.011,-7.002 -0.715,-5.771 -7.076,-5.122 -5.647,-12.061 8.892,-1.749 25.77,3.113 37.779,16.34 8.634,-1.166 23.109,-1.751 38.753,5.836 -3.116,-4.345 -5.064,-8.495 -5.453,-14.006 14.606,-0.194 31.548,2.14 47.322,10.504 -2.272,-5.251 -3.765,-6.613 -5.648,-9.919 12.528,1.945 23.304,2.917 39.144,16.338 14.8,-10.244 0.778,-0.065 14.604,-10.115 -0.714,-34.265 -4.03,-42.316 19.28,-72.553 5.687,-7.377 12.463,-11.121 13.047,-29.178 7.821,1.912 15.928,7.274 16.747,14.199 1.721,14.555 1.315,27.081 -2.141,42.795 -3.458,15.72 -4.013,17.403 -9.347,33.067 -2.346,6.887 -4.674,18.025 4.867,38.125 10.159,21.72 20.059,42.242 21.228,49.99 2.141,15.14 0.583,35.662 -9.348,36.959 -7.206,-10.958 11.295,-34.397 -16.358,-33.653 6.621,12.029 2.067,20.856 -0.196,23.538 -4.424,5.245 -4.413,8.721 1.948,15.561 -14.476,-1.329 -13.21,23.796 -15.19,34.623 5.42,-8.039 6.589,-9.142 12.853,-8.557 9.186,0.972 7.628,-0.033 11.684,-3.309 4.446,20.847 18.501,21.916 27.849,5.836 3.116,-5.575 4.77,-9.013 5.257,-16.727 -13.339,17.181 -23.791,3.825 -15.19,-10.504 19.117,-32.809 4.835,-52.326 -1.558,-63.218 -26.452,-42.211 -22.614,-64.892 -12.267,-88.116 13.955,-31.325 6.57,-62.191 3.699,-66.718 -9.812,-15.467 -21.161,-16.665 -26.679,-17.508 -2.597,-11.541 -4.512,-22.402 2.337,-25.869 28.658,11.508 17.674,7.78 31.159,12.255 C -2.918,80.248 4.674,62.116 0,46.684 -1.622,54.4 -4.155,60.169 -12.853,61.467 -9.672,48.175 -7.928,47.247 -12.657,31.901 -15.752,21.857 -8.796,6.915 -0.973,14.004 6.656,20.918 6.589,20.651 12.659,27.816 12.885,18.446 4.655,2.805 0,0"
       style="fill:#fbc707;fill-opacity:1;fill-rule:evenodd;stroke:none"
       transform="matrix(1.3333333,0,0,-1.3333333,598.50027,602.35067)" />
    <path
       id="path6"
       d="M 0,0 C 4.921,-1.603 8.866,-9.247 9.689,-17.087 6.156,-16.372 5.354,-15.463 0.26,-17.282 0.434,-12.431 0.607,-7.97 0,0"
       style="fill:#ffffff;fill-opacity:1;fill-rule:evenodd;stroke:none"
       transform="matrix(1.3333333,0,0,-1.3333333,292.52893,125.98827)" />
    <path
       id="path7"
       d="M 0,0 C 6.356,-0.194 8.821,-1.165 12.064,-3.496 9.794,-7.122 8.497,-7.64 5.838,-8.546 3.892,-5.697 1.362,-4.014 0,0"
       style="fill:#ffffff;fill-opacity:1;fill-rule:evenodd;stroke:none"
       transform="matrix(1.3333333,0,0,-1.3333333,251.36453,147.00507)" />
    <path
       id="path8"
       d="M 0,0 C 3.175,2.076 4.795,2.595 8.36,3.309 6.74,0.13 7.452,-1.882 7.582,-4.477 4.277,-3.569 2.333,-2.466 0,0"
       style="fill:#ffffff;fill-opacity:1;fill-rule:evenodd;stroke:none"
       transform="matrix(1.3333333,0,0,-1.3333333,235.2788,193.32427)" />
    <path
       id="path9"
       d="M 0,0 C 1.878,-3.313 2.978,-4.093 6.216,-5.847 2.072,-9.745 -2.46,-10.915 -6.798,-11.11 -1.813,-6.432 -1.101,-4.288 0,0"
       style="fill:#ffffff;fill-opacity:1;fill-rule:evenodd;stroke:none"
       transform="matrix(1.3333333,0,0,-1.3333333,255.48947,230.94573)" />
    <path
       id="path10"
       d="m 0,0 c 3.553,-0.411 5.144,-5.306 6.539,-11.176 -3.27,-1.516 -4.185,-0.303 -6.277,1.3 C -0.479,-7.624 -0.632,-5.371 0,0"
       style="fill:#ffffff;fill-opacity:1;fill-rule:evenodd;stroke:none"
       transform="matrix(1.3333333,0,0,-1.3333333,245.17933,311.59453)" />
    <path
       id="path11"
       d="M 0,0 C 4.752,3.375 8.727,3.115 12.701,3.115 12.96,-0.606 11.405,-3.029 9.591,-5.711 7.171,-3.288 4.234,-1.385 0,0"
       style="fill:#ffffff;fill-opacity:1;fill-rule:evenodd;stroke:none"
       transform="matrix(1.3333333,0,0,-1.3333333,197.7876,344.49387)" />
    <path
       id="path12"
       d="M 0,0 C 3.62,-0.345 6.465,-0.173 10.085,1.294 13.447,0.259 13.706,-3.105 13.964,-7.245 9.309,-7.418 3.362,-4.485 0,0"
       style="fill:#ffffff;fill-opacity:1;fill-rule:evenodd;stroke:none"
       transform="matrix(1.3333333,0,0,-1.3333333,190.188,391.81587)" />
    <path
       id="path13"
       d="M 0,0 C 3.745,-1.216 6.184,-1.129 10.452,0.261 8.449,-4.604 4.094,-9.469 -0.261,-11.989 -1.742,-7.732 -1.132,-5.299 0,0"
       style="fill:#ffffff;fill-opacity:1;fill-rule:evenodd;stroke:none"
       transform="matrix(1.3333333,0,0,-1.3333333,234.76813,422.59667)" />
    <path
       id="path14"
       d="M 0,0 C 3.553,0.517 7.626,-0.259 9.879,-2.329 8.493,-4.571 6.586,-5.778 5.72,-9.056 3.9,-5.865 3.12,-3.967 0,0"
       style="fill:#ffffff;fill-opacity:1;fill-rule:evenodd;stroke:none"
       transform="matrix(1.3333333,0,0,-1.3333333,266.3104,515.2592)" />
    <path
       id="path15"
       d="M 0,0 C 3.704,4.428 5.858,6.511 11.114,7.032 12.837,3.212 12.492,0.955 10.855,-2.084 7.495,-0.347 4.394,-0.434 0,0"
       style="fill:#ffffff;fill-opacity:1;fill-rule:evenodd;stroke:none"
       transform="matrix(1.3333333,0,0,-1.3333333,234.1388,570.64027)" />
    <path
       id="path16"
       d="M 0,0 C 1.649,-2.24 4.6,-3.705 7.03,-3.877 4.166,-7.065 2.083,-9.219 0.26,-13.958 -1.649,-10.598 -1.475,-5.945 0,0"
       style="fill:#ffffff;fill-opacity:1;fill-rule:evenodd;stroke:none"
       transform="matrix(1.3333333,0,0,-1.3333333,268.33613,607.98213)" />
    <path
       id="path17"
       d="M 0,0 C 2.663,-0.782 4.81,-0.261 7.989,0.782 7.301,-3.301 5.068,-7.645 2.062,-11.467 0.344,-8.427 -0.344,-5.386 0,0"
       style="fill:#ffffff;fill-opacity:1;fill-rule:evenodd;stroke:none"
       transform="matrix(1.3333333,0,0,-1.3333333,307.2092,612.0632)" />
    <path
       id="path18"
       d="m 0,0 c 3.969,2.237 7.42,2.409 11.13,2.065 0.517,-3.098 0,-5.679 -3.106,-7.744 C 5.349,-3.27 3.451,-1.119 0,0"
       style="fill:#ffffff;fill-opacity:1;fill-rule:evenodd;stroke:none"
       transform="matrix(1.3333333,0,0,-1.3333333,443.2536,611.80467)" />
    <path
       id="path19"
       d="M 0,0 C 3.506,-1.292 5.729,-3.101 5.901,-6.202 4.019,-9.389 2.907,-12.317 0.257,-15.763 -2.138,-10.767 -1.454,-5.254 0,0"
       style="fill:#ffffff;fill-opacity:1;fill-rule:evenodd;stroke:none"
       transform="matrix(1.3333333,0,0,-1.3333333,450.8388,661.9168)" />
    <path
       id="path20"
       d="M 0,0 C 1.647,2.075 3.553,3.632 7.28,3.113 8.146,-0.778 9.793,-3.372 9.879,-8.561 5.546,-6.486 2.513,-4.151 0,0"
       style="fill:#ffffff;fill-opacity:1;fill-rule:evenodd;stroke:none"
       transform="matrix(1.3333333,0,0,-1.3333333,489.61107,683.04027)" />
    <path
       id="path21"
       d="M 0,0 C 1.21,1.976 3.198,2.921 5.445,3.866 6.05,-1.117 4.84,-5.842 3.371,-8.763 1.469,-5.327 1.124,-2.921 0,0"
       style="fill:#ffffff;fill-opacity:1;fill-rule:evenodd;stroke:none"
       transform="matrix(1.3333333,0,0,-1.3333333,521.40253,667.45133)" />
    <path
       id="path22"
       d="m 0,0 c 6.862,2.077 13.724,3.765 15.731,-2.337 0.647,-4.284 0.194,-1.98 1.748,-8.958 -1.586,2.856 -1.813,3.538 -3.302,4.479 -4.628,-3.765 -9.581,-1.331 -9.516,5.842 z"
       style="fill:#c1251a;fill-opacity:1;fill-rule:evenodd;stroke:none"
       transform="matrix(1.3333333,0,0,-1.3333333,419.3156,138.84093)" />
  </g>
</svg>
